<mxfile host="app.diagrams.net" modified="2023-10-25T13:57:03.305Z" agent="Mozilla/5.0 (Windows NT 10.0; Win64; x64) AppleWebKit/537.36 (KHTML, like Gecko) Chrome/120.0.0.0 Safari/537.36" etag="4BXH6XhaSG9eYasN9jAg" version="22.0.8" type="github">
  <diagram name="第 1 页" id="N1bwDiEy6vZ2bNzLfBRU">
    <mxGraphModel dx="662" dy="380" grid="1" gridSize="10" guides="1" tooltips="1" connect="1" arrows="1" fold="1" page="1" pageScale="1" pageWidth="827" pageHeight="1169" math="0" shadow="0">
      <root>
        <mxCell id="0" />
        <mxCell id="1" parent="0" />
        <mxCell id="rVY3uNV02rDD3uPTPN9k-7" style="edgeStyle=orthogonalEdgeStyle;rounded=0;orthogonalLoop=1;jettySize=auto;html=1;entryX=0.505;entryY=-0.058;entryDx=0;entryDy=0;entryPerimeter=0;" edge="1" parent="1" source="rVY3uNV02rDD3uPTPN9k-1" target="rVY3uNV02rDD3uPTPN9k-10">
          <mxGeometry relative="1" as="geometry">
            <mxPoint x="370" y="220" as="targetPoint" />
          </mxGeometry>
        </mxCell>
        <mxCell id="rVY3uNV02rDD3uPTPN9k-1" value="開始" style="rounded=1;whiteSpace=wrap;html=1;" vertex="1" parent="1">
          <mxGeometry x="310" y="110" width="120" height="60" as="geometry" />
        </mxCell>
        <mxCell id="rVY3uNV02rDD3uPTPN9k-6" style="edgeStyle=orthogonalEdgeStyle;rounded=0;orthogonalLoop=1;jettySize=auto;html=1;exitX=0.5;exitY=1;exitDx=0;exitDy=0;entryX=0.5;entryY=0;entryDx=0;entryDy=0;" edge="1" parent="1" source="rVY3uNV02rDD3uPTPN9k-10" target="rVY3uNV02rDD3uPTPN9k-4">
          <mxGeometry relative="1" as="geometry">
            <mxPoint x="370" y="300" as="sourcePoint" />
          </mxGeometry>
        </mxCell>
        <mxCell id="rVY3uNV02rDD3uPTPN9k-17" style="edgeStyle=orthogonalEdgeStyle;rounded=0;orthogonalLoop=1;jettySize=auto;html=1;exitX=0.5;exitY=1;exitDx=0;exitDy=0;entryX=0.5;entryY=0;entryDx=0;entryDy=0;" edge="1" parent="1" source="rVY3uNV02rDD3uPTPN9k-4" target="rVY3uNV02rDD3uPTPN9k-15">
          <mxGeometry relative="1" as="geometry" />
        </mxCell>
        <mxCell id="rVY3uNV02rDD3uPTPN9k-18" style="edgeStyle=orthogonalEdgeStyle;rounded=0;orthogonalLoop=1;jettySize=auto;html=1;entryX=0.5;entryY=0;entryDx=0;entryDy=0;" edge="1" parent="1" source="rVY3uNV02rDD3uPTPN9k-4" target="rVY3uNV02rDD3uPTPN9k-14">
          <mxGeometry relative="1" as="geometry" />
        </mxCell>
        <mxCell id="rVY3uNV02rDD3uPTPN9k-19" style="edgeStyle=orthogonalEdgeStyle;rounded=0;orthogonalLoop=1;jettySize=auto;html=1;" edge="1" parent="1" source="rVY3uNV02rDD3uPTPN9k-4" target="rVY3uNV02rDD3uPTPN9k-16">
          <mxGeometry relative="1" as="geometry" />
        </mxCell>
        <mxCell id="rVY3uNV02rDD3uPTPN9k-20" style="edgeStyle=orthogonalEdgeStyle;rounded=0;orthogonalLoop=1;jettySize=auto;html=1;entryX=0.5;entryY=0;entryDx=0;entryDy=0;" edge="1" parent="1" source="rVY3uNV02rDD3uPTPN9k-4" target="rVY3uNV02rDD3uPTPN9k-12">
          <mxGeometry relative="1" as="geometry" />
        </mxCell>
        <mxCell id="rVY3uNV02rDD3uPTPN9k-26" value="" style="edgeStyle=orthogonalEdgeStyle;rounded=0;orthogonalLoop=1;jettySize=auto;html=1;" edge="1" parent="1" source="rVY3uNV02rDD3uPTPN9k-4" target="rVY3uNV02rDD3uPTPN9k-15">
          <mxGeometry relative="1" as="geometry" />
        </mxCell>
        <mxCell id="rVY3uNV02rDD3uPTPN9k-35" style="edgeStyle=orthogonalEdgeStyle;rounded=0;orthogonalLoop=1;jettySize=auto;html=1;entryX=0.5;entryY=0;entryDx=0;entryDy=0;" edge="1" parent="1" source="rVY3uNV02rDD3uPTPN9k-4" target="rVY3uNV02rDD3uPTPN9k-30">
          <mxGeometry relative="1" as="geometry" />
        </mxCell>
        <mxCell id="rVY3uNV02rDD3uPTPN9k-4" value="成績 = 變數 i&amp;nbsp;" style="rounded=0;whiteSpace=wrap;html=1;" vertex="1" parent="1">
          <mxGeometry x="310" y="350" width="120" height="60" as="geometry" />
        </mxCell>
        <mxCell id="rVY3uNV02rDD3uPTPN9k-10" value="輸入成績" style="shape=parallelogram;perimeter=parallelogramPerimeter;whiteSpace=wrap;html=1;fixedSize=1;" vertex="1" parent="1">
          <mxGeometry x="310" y="230" width="120" height="60" as="geometry" />
        </mxCell>
        <mxCell id="rVY3uNV02rDD3uPTPN9k-25" style="edgeStyle=orthogonalEdgeStyle;rounded=0;orthogonalLoop=1;jettySize=auto;html=1;exitX=0.5;exitY=1;exitDx=0;exitDy=0;entryX=0.5;entryY=0;entryDx=0;entryDy=0;" edge="1" parent="1" source="rVY3uNV02rDD3uPTPN9k-12" target="rVY3uNV02rDD3uPTPN9k-23">
          <mxGeometry relative="1" as="geometry" />
        </mxCell>
        <mxCell id="rVY3uNV02rDD3uPTPN9k-12" value="i &amp;gt;= 90" style="rhombus;whiteSpace=wrap;html=1;" vertex="1" parent="1">
          <mxGeometry x="100" y="470" width="120" height="80" as="geometry" />
        </mxCell>
        <mxCell id="rVY3uNV02rDD3uPTPN9k-28" style="edgeStyle=orthogonalEdgeStyle;rounded=0;orthogonalLoop=1;jettySize=auto;html=1;entryX=0.5;entryY=0;entryDx=0;entryDy=0;" edge="1" parent="1" source="rVY3uNV02rDD3uPTPN9k-14" target="rVY3uNV02rDD3uPTPN9k-27">
          <mxGeometry relative="1" as="geometry" />
        </mxCell>
        <mxCell id="rVY3uNV02rDD3uPTPN9k-14" value="i &amp;gt;= 80 且 &amp;lt;90" style="rhombus;whiteSpace=wrap;html=1;" vertex="1" parent="1">
          <mxGeometry x="240" y="470" width="120" height="80" as="geometry" />
        </mxCell>
        <mxCell id="rVY3uNV02rDD3uPTPN9k-33" style="edgeStyle=orthogonalEdgeStyle;rounded=0;orthogonalLoop=1;jettySize=auto;html=1;entryX=0.5;entryY=0;entryDx=0;entryDy=0;" edge="1" parent="1" source="rVY3uNV02rDD3uPTPN9k-15" target="rVY3uNV02rDD3uPTPN9k-29">
          <mxGeometry relative="1" as="geometry" />
        </mxCell>
        <mxCell id="rVY3uNV02rDD3uPTPN9k-15" value="i &amp;gt;= 70 且 &amp;lt;80" style="rhombus;whiteSpace=wrap;html=1;" vertex="1" parent="1">
          <mxGeometry x="390" y="470" width="120" height="80" as="geometry" />
        </mxCell>
        <mxCell id="rVY3uNV02rDD3uPTPN9k-34" style="edgeStyle=orthogonalEdgeStyle;rounded=0;orthogonalLoop=1;jettySize=auto;html=1;entryX=0.5;entryY=0;entryDx=0;entryDy=0;" edge="1" parent="1" source="rVY3uNV02rDD3uPTPN9k-16" target="rVY3uNV02rDD3uPTPN9k-32">
          <mxGeometry relative="1" as="geometry" />
        </mxCell>
        <mxCell id="rVY3uNV02rDD3uPTPN9k-16" value="i &amp;gt;= 60 且 &amp;lt;70" style="rhombus;whiteSpace=wrap;html=1;" vertex="1" parent="1">
          <mxGeometry x="530" y="470" width="120" height="80" as="geometry" />
        </mxCell>
        <mxCell id="rVY3uNV02rDD3uPTPN9k-43" style="edgeStyle=orthogonalEdgeStyle;rounded=0;orthogonalLoop=1;jettySize=auto;html=1;exitX=0.75;exitY=1;exitDx=0;exitDy=0;entryX=0;entryY=0.75;entryDx=0;entryDy=0;" edge="1" parent="1" source="rVY3uNV02rDD3uPTPN9k-23" target="rVY3uNV02rDD3uPTPN9k-37">
          <mxGeometry relative="1" as="geometry" />
        </mxCell>
        <mxCell id="rVY3uNV02rDD3uPTPN9k-23" value="輸出優等" style="shape=parallelogram;perimeter=parallelogramPerimeter;whiteSpace=wrap;html=1;fixedSize=1;" vertex="1" parent="1">
          <mxGeometry x="100" y="590" width="120" height="60" as="geometry" />
        </mxCell>
        <mxCell id="rVY3uNV02rDD3uPTPN9k-41" style="edgeStyle=orthogonalEdgeStyle;rounded=0;orthogonalLoop=1;jettySize=auto;html=1;exitX=0.5;exitY=1;exitDx=0;exitDy=0;entryX=0;entryY=0.5;entryDx=0;entryDy=0;" edge="1" parent="1" source="rVY3uNV02rDD3uPTPN9k-27" target="rVY3uNV02rDD3uPTPN9k-37">
          <mxGeometry relative="1" as="geometry" />
        </mxCell>
        <mxCell id="rVY3uNV02rDD3uPTPN9k-27" value="輸出甲等" style="shape=parallelogram;perimeter=parallelogramPerimeter;whiteSpace=wrap;html=1;fixedSize=1;" vertex="1" parent="1">
          <mxGeometry x="240" y="590" width="120" height="60" as="geometry" />
        </mxCell>
        <mxCell id="rVY3uNV02rDD3uPTPN9k-38" style="edgeStyle=orthogonalEdgeStyle;rounded=0;orthogonalLoop=1;jettySize=auto;html=1;entryX=0.5;entryY=0;entryDx=0;entryDy=0;" edge="1" parent="1" source="rVY3uNV02rDD3uPTPN9k-29" target="rVY3uNV02rDD3uPTPN9k-37">
          <mxGeometry relative="1" as="geometry" />
        </mxCell>
        <mxCell id="rVY3uNV02rDD3uPTPN9k-29" value="輸出乙等" style="shape=parallelogram;perimeter=parallelogramPerimeter;whiteSpace=wrap;html=1;fixedSize=1;" vertex="1" parent="1">
          <mxGeometry x="390" y="590" width="120" height="60" as="geometry" />
        </mxCell>
        <mxCell id="rVY3uNV02rDD3uPTPN9k-36" style="edgeStyle=orthogonalEdgeStyle;rounded=0;orthogonalLoop=1;jettySize=auto;html=1;entryX=0.5;entryY=0;entryDx=0;entryDy=0;" edge="1" parent="1" source="rVY3uNV02rDD3uPTPN9k-30" target="rVY3uNV02rDD3uPTPN9k-31">
          <mxGeometry relative="1" as="geometry" />
        </mxCell>
        <mxCell id="rVY3uNV02rDD3uPTPN9k-30" value="i &amp;lt; 60" style="rhombus;whiteSpace=wrap;html=1;" vertex="1" parent="1">
          <mxGeometry x="670" y="470" width="120" height="80" as="geometry" />
        </mxCell>
        <mxCell id="rVY3uNV02rDD3uPTPN9k-44" style="edgeStyle=orthogonalEdgeStyle;rounded=0;orthogonalLoop=1;jettySize=auto;html=1;exitX=0.75;exitY=1;exitDx=0;exitDy=0;entryX=1;entryY=0.75;entryDx=0;entryDy=0;" edge="1" parent="1" source="rVY3uNV02rDD3uPTPN9k-31" target="rVY3uNV02rDD3uPTPN9k-37">
          <mxGeometry relative="1" as="geometry" />
        </mxCell>
        <mxCell id="rVY3uNV02rDD3uPTPN9k-31" value="輸出丁等" style="shape=parallelogram;perimeter=parallelogramPerimeter;whiteSpace=wrap;html=1;fixedSize=1;" vertex="1" parent="1">
          <mxGeometry x="670" y="590" width="120" height="60" as="geometry" />
        </mxCell>
        <mxCell id="rVY3uNV02rDD3uPTPN9k-40" style="edgeStyle=orthogonalEdgeStyle;rounded=0;orthogonalLoop=1;jettySize=auto;html=1;exitX=0.25;exitY=1;exitDx=0;exitDy=0;entryX=1;entryY=0.5;entryDx=0;entryDy=0;" edge="1" parent="1" source="rVY3uNV02rDD3uPTPN9k-32" target="rVY3uNV02rDD3uPTPN9k-37">
          <mxGeometry relative="1" as="geometry" />
        </mxCell>
        <mxCell id="rVY3uNV02rDD3uPTPN9k-32" value="輸出丙等" style="shape=parallelogram;perimeter=parallelogramPerimeter;whiteSpace=wrap;html=1;fixedSize=1;" vertex="1" parent="1">
          <mxGeometry x="530" y="590" width="120" height="60" as="geometry" />
        </mxCell>
        <mxCell id="rVY3uNV02rDD3uPTPN9k-37" value="結束" style="rounded=1;whiteSpace=wrap;html=1;" vertex="1" parent="1">
          <mxGeometry x="390" y="770" width="120" height="60" as="geometry" />
        </mxCell>
      </root>
    </mxGraphModel>
  </diagram>
</mxfile>
